<?xml version="1.0" encoding="UTF-8" standalone="no"?>
<!-- Created with Inkscape (http://www.inkscape.org/) -->

<svg
   version="1.1"
   id="svg647"
   width="629.57867"
   height="584.19598"
   viewBox="0 0 629.57867 584.19598"
   sodipodi:docname="logo ivi-save.svg"
   inkscape:export-filename="logo ivi.ai.svg"
   inkscape:export-xdpi="96"
   inkscape:export-ydpi="96"
   inkscape:version="1.2.2 (732a01da63, 2022-12-09)"
   xmlns:inkscape="http://www.inkscape.org/namespaces/inkscape"
   xmlns:sodipodi="http://sodipodi.sourceforge.net/DTD/sodipodi-0.dtd"
   xmlns="http://www.w3.org/2000/svg"
   xmlns:svg="http://www.w3.org/2000/svg">
  <defs
     id="defs651">
    <clipPath
       clipPathUnits="userSpaceOnUse"
       id="clipPath663">
      <path
         d="m 62.018,252.988 c -19.117,0 -34.613,-15.497 -34.613,-34.613 v 0 -140.972 h 23.169 c 19.116,0 34.612,15.496 34.612,34.612 v 0 140.973 z"
         id="path661" />
    </clipPath>
    <linearGradient
       x1="0"
       y1="0"
       x2="1"
       y2="0"
       gradientUnits="userSpaceOnUse"
       gradientTransform="matrix(0,-175.58493,-175.58493,0,56.295544,252.98784)"
       spreadMethod="pad"
       id="linearGradient677">
      <stop
         style="stop-opacity:1;stop-color:#b3a8cf"
         offset="0"
         id="stop669" />
      <stop
         style="stop-opacity:1;stop-color:#b3a8cf"
         offset="0.0363128"
         id="stop671" />
      <stop
         style="stop-opacity:1;stop-color:#b3a8cf"
         offset="0.22223704"
         id="stop673" />
      <stop
         style="stop-opacity:1;stop-color:#665391"
         offset="1"
         id="stop675" />
    </linearGradient>
    <clipPath
       clipPathUnits="userSpaceOnUse"
       id="clipPath687">
      <path
         d="M 401.547,252.144 V 111.173 c 0,-19.116 15.496,-34.614 34.612,-34.614 v 0 h 23.169 v 140.973 c 0,19.116 -15.497,34.612 -34.613,34.612 v 0 z"
         id="path685" />
    </clipPath>
    <linearGradient
       x1="0"
       y1="0"
       x2="1"
       y2="0"
       gradientUnits="userSpaceOnUse"
       gradientTransform="matrix(0,-175.58493,-175.58493,0,430.43707,252.14468)"
       spreadMethod="pad"
       id="linearGradient701">
      <stop
         style="stop-opacity:1;stop-color:#b3a8cf"
         offset="0"
         id="stop693" />
      <stop
         style="stop-opacity:1;stop-color:#b3a8cf"
         offset="0.0363128"
         id="stop695" />
      <stop
         style="stop-opacity:1;stop-color:#b3a8cf"
         offset="0.22223704"
         id="stop697" />
      <stop
         style="stop-opacity:1;stop-color:#665391"
         offset="1"
         id="stop699" />
    </linearGradient>
    <clipPath
       clipPathUnits="userSpaceOnUse"
       id="clipPath711">
      <path
         d="m 339.16,252.144 c -17.472,0 -33.563,-9.492 -42.014,-24.784 v 0 l -53.044,-95.985 c -17.628,31.975 -35.262,63.957 -52.894,95.941 v 0 c -8.443,15.317 -24.547,24.828 -42.036,24.828 v 0 H 108.873 C 142.673,191.055 243.582,6.604 243.582,6.604 v 0 l 135.93,245.54 z"
         id="path709" />
    </clipPath>
    <linearGradient
       x1="0"
       y1="0"
       x2="1"
       y2="0"
       gradientUnits="userSpaceOnUse"
       gradientTransform="matrix(0,-245.54004,-245.54004,0,244.19241,252.14468)"
       spreadMethod="pad"
       id="linearGradient725">
      <stop
         style="stop-opacity:1;stop-color:#b3a8cf"
         offset="0"
         id="stop717" />
      <stop
         style="stop-opacity:1;stop-color:#b3a8cf"
         offset="0.0363128"
         id="stop719" />
      <stop
         style="stop-opacity:1;stop-color:#b3a8cf"
         offset="0.22223704"
         id="stop721" />
      <stop
         style="stop-opacity:1;stop-color:#665391"
         offset="1"
         id="stop723" />
    </linearGradient>
  </defs>
  <sodipodi:namedview
     id="namedview649"
     pagecolor="#ffffff"
     bordercolor="#000000"
     borderopacity="0.25"
     inkscape:showpageshadow="2"
     inkscape:pageopacity="0.0"
     inkscape:pagecheckerboard="0"
     inkscape:deskcolor="#d1d1d1"
     showgrid="false"
     inkscape:zoom="1.379674"
     inkscape:cx="314.56707"
     inkscape:cy="292.4604"
     inkscape:window-width="1658"
     inkscape:window-height="1032"
     inkscape:window-x="66"
     inkscape:window-y="0"
     inkscape:window-maximized="0"
     inkscape:current-layer="g767" />
  <g
     id="g655"
     inkscape:groupmode="layer"
     inkscape:label="Page 1"
     transform="matrix(1.3333333,0,0,-1.3333333,0,584.196)">
    <g
       id="g657">
      <g
         id="g659"
         clip-path="url(#clipPath663)">
        <g
           id="g665">
          <g
             id="g667">
            <path
               d="m 62.018,252.988 c -19.117,0 -34.613,-15.497 -34.613,-34.613 v 0 -140.972 h 23.169 c 19.116,0 34.612,15.496 34.612,34.612 v 0 140.973 z"
               style="fill:url(#linearGradient677);stroke:none"
               id="path679" />
          </g>
        </g>
      </g>
    </g>
    <g
       id="g681">
      <g
         id="g683"
         clip-path="url(#clipPath687)">
        <g
           id="g689">
          <g
             id="g691">
            <path
               d="M 401.547,252.144 V 111.173 c 0,-19.116 15.496,-34.614 34.612,-34.614 v 0 h 23.169 v 140.973 c 0,19.116 -15.497,34.612 -34.613,34.612 v 0 z"
               style="fill:url(#linearGradient701);stroke:none"
               id="path703" />
          </g>
        </g>
      </g>
    </g>
    <g
       id="g705">
      <g
         id="g707"
         clip-path="url(#clipPath711)">
        <g
           id="g713">
          <g
             id="g715">
            <path
               d="m 339.16,252.144 c -17.472,0 -33.563,-9.492 -42.014,-24.784 v 0 l -53.044,-95.985 c -17.628,31.975 -35.262,63.957 -52.894,95.941 v 0 c -8.443,15.317 -24.547,24.828 -42.036,24.828 v 0 H 108.873 C 142.673,191.055 243.582,6.604 243.582,6.604 v 0 l 135.93,245.54 z"
               style="fill:url(#linearGradient725);stroke:none"
               id="path727" />
          </g>
        </g>
      </g>
    </g>
    <g
       aria-label="Project"
       transform="matrix(0.99963032,0,0,-1,11.2246,309.498)"
       id="text731"
       style="font-size:150.672px;font-family:Aceh;-inkscape-font-specification:Aceh-Regular;fill:#231f20">
      <path
         d="m 10.999056,0 v -93.265966 h 42.489503 q 6.02688,0 11.3004,2.109408 5.27352,2.109408 9.190992,5.876208 4.068143,3.616128 6.328223,8.738975 2.410752,4.972176 2.410752,10.697712 0,5.876208 -2.410752,10.848384 -2.26008,4.972176 -6.328223,8.738976 -3.917472,3.7668 -9.190992,5.876208 -5.27352,2.109408 -11.3004,2.109408 H 23.655504 V 0 Z m 12.656448,-82.26691 v 33.147839 h 29.833055 q 3.465456,0 6.478896,-1.205376 3.01344,-1.356048 5.27352,-3.616128 2.26008,-2.26008 3.616128,-5.27352 1.356048,-3.164112 1.356048,-6.629568 0,-3.314784 -1.356048,-6.328224 -1.205376,-3.01344 -3.465456,-5.273519 -2.26008,-2.26008 -5.27352,-3.465456 -3.01344,-1.356048 -6.629568,-1.356048 z"
         id="path3399" />
      <path
         d="M 97.786189,0 V -67.802399 H 109.5386 v 13.861824 q 1.95874,-3.465456 4.67084,-5.876208 2.86276,-2.561424 6.02688,-4.068144 3.31478,-1.657392 6.62956,-2.410752 3.46546,-0.904032 6.62957,-0.904032 1.35605,0 2.56143,0.150672 1.35604,0.150672 2.56142,0.452016 l -5.12285,10.848384 q -4.52016,-0.904032 -8.88965,0.452016 -4.21881,1.356048 -7.68427,4.52016 -3.31478,3.01344 -5.42419,7.382928 -1.95874,4.369488 -1.95874,9.492336 V 0 Z"
         id="path3401" />
      <path
         d="m 178.09439,0.60268799 q -7.08158,0 -13.40981,-2.71209599 -6.17755,-2.7120959 -10.84838,-7.3829278 -4.67083,-4.6708322 -7.38293,-10.9990562 -2.71209,-6.328223 -2.71209,-13.409807 0,-7.081584 2.71209,-13.409808 2.7121,-6.328224 7.38293,-10.999056 4.67083,-4.670832 10.84838,-7.382928 6.32823,-2.712096 13.40981,-2.712096 7.08159,0 13.25914,2.712096 6.32822,2.712096 10.84838,7.382928 4.67083,4.670832 7.38293,10.999056 2.7121,6.328224 2.7121,13.409808 0,7.081584 -2.7121,13.409807 -2.7121,6.328224 -7.38293,10.9990562 -4.52016,4.6708319 -10.84838,7.3829278 -6.17755,2.71209599 -13.25914,2.71209599 z m 0,-59.06342299 q -4.67083,0 -8.88965,1.958736 -4.06814,1.958736 -7.08158,5.27352 -3.01344,3.314784 -4.8215,7.834944 -1.80807,4.369488 -1.80807,9.492336 0,5.122848 1.80807,9.643007 1.80806,4.369488 4.8215,7.684272 3.01344,3.314784 7.08158,5.27352 4.21882,1.9587362 8.88965,1.9587362 4.67083,0 8.73898,-1.9587362 4.06814,-1.958736 7.08158,-5.27352 3.16411,-3.314784 4.82151,-7.684272 1.80806,-4.520159 1.80806,-9.643007 0,-5.27352 -1.80806,-9.643008 -1.80807,-4.52016 -4.97218,-7.834944 -3.01344,-3.314784 -7.08158,-5.122848 -4.06815,-1.958736 -8.58831,-1.958736 z"
         id="path3403" />
      <path
         d="m 223.14537,-89.197822 q 0,-3.164112 2.56142,-5.424192 2.7121,-2.410752 6.17756,-2.410752 3.46545,0 6.02688,2.410752 2.71209,2.26008 2.71209,5.424192 0,3.01344 -2.71209,5.424192 -2.56143,2.26008 -6.02688,2.26008 -3.46546,0 -6.17756,-2.26008 -2.56142,-2.410752 -2.56142,-5.424192 z M 208.53019,15.971232 q 1.50672,0.452016 3.7668,0.452016 2.71209,0 5.12284,-1.054704 2.56143,-1.054704 4.52016,-2.862768 1.95874,-1.808064 3.16412,-4.3694882 1.20537,-2.5614239 1.20537,-5.5748638 V -67.802399 H 238.0619 V 2.410752 q 0,5.2735199 -2.10941,9.79368 -1.95874,4.52016 -5.57486,7.834944 -3.46546,3.465456 -8.13629,5.424192 -4.67083,1.958735 -9.94435,1.958735 -1.95874,0 -3.61613,-0.301344 -1.80807,-0.150672 -3.16411,-0.452016 z"
         id="path3405" />
      <path
         d="m 253.2798,-33.901199 q 0,-7.081584 2.71209,-13.409808 2.7121,-6.328224 7.38293,-10.999056 4.67083,-4.670832 10.84838,-7.382928 6.32823,-2.712096 13.25914,-2.712096 7.68427,0 14.0125,3.01344 6.47889,2.862768 10.99905,7.985616 4.52016,4.972176 6.78024,11.903088 2.41075,6.78024 1.65739,14.615184 h -55.59796 q 0.45201,4.369488 2.1094,8.286959 1.80807,3.917472 4.67084,6.930912 3.01344,2.862768 6.78024,4.670832 3.91747,1.6573922 8.5883,1.6573922 6.32822,0 11.45107,-3.1641122 5.12285,-3.314784 7.68427,-8.889648 l 11.90309,1.054704 q -3.91747,9.190992 -12.05376,15.0672001 -8.13629,5.87620789 -18.98467,5.87620789 -7.23226,0 -13.56048,-2.71209599 -6.17755,-2.7120959 -10.84838,-7.3829278 -4.52016,-4.6708322 -7.23226,-10.8483842 -2.56142,-6.328223 -2.56142,-13.560479 z m 55.74864,-4.218816 q -1.20538,-9.492336 -7.23226,-15.217872 -5.87621,-5.876208 -14.46451,-5.876208 -4.36949,0 -8.13629,1.657392 -3.7668,1.657392 -6.62957,4.52016 -2.71209,2.862768 -4.52016,6.78024 -1.80806,3.7668 -2.26008,8.136288 z"
         id="path3407" />
      <path
         d="m 332.23198,-33.901199 q 0,-7.5336 2.71209,-13.861824 2.7121,-6.328224 7.23226,-10.848384 4.67083,-4.670832 10.69771,-7.232256 6.02688,-2.561424 12.80712,-2.561424 10.39637,0 18.68333,5.725536 8.28696,5.725536 12.20443,16.57392 l -11.14973,0.904032 q -2.56142,-6.78024 -8.13629,-9.944352 -5.42419,-3.314784 -11.3004,-3.314784 -4.8215,0 -8.88964,2.109408 -4.06815,1.958736 -7.08159,5.424192 -2.86277,3.314784 -4.52016,7.834944 -1.50672,4.369488 -1.50672,9.190992 0,4.972176 1.65739,9.492335 1.6574,4.52016 4.52016,7.834944 3.01344,3.314784 7.08159,5.27352 4.06814,1.9587362 8.73897,1.9587362 6.4789,0 11.60175,-3.4654562 5.27352,-3.616128 7.83494,-10.095024 l 11.14973,0.904032 q -3.91747,10.999056 -12.20443,16.8752641 -8.28696,5.72553589 -18.68333,5.72553589 -6.78024,0 -12.95779,-2.56142399 -6.02688,-2.7120959 -10.69771,-7.2322558 -4.52016,-4.6708322 -7.23226,-10.9990562 -2.56142,-6.328223 -2.56142,-13.711151 z"
         id="path3409" />
      <path
         d="m 405.0066,-58.611407 v -9.190992 h 9.04032 v -17.176607 h 11.75242 v 17.176607 h 18.98467 v 9.190992 h -18.98467 v 34.202543 q 0,6.328224 3.91747,9.944352 3.91747,3.616128 9.64301,3.616128 1.20537,0 2.1094,-0.150672 1.05471,-0.150672 1.35605,-0.150672 l 2.56143,10.24569602 q -0.30135,0.15067199 -2.41076,0.60268799 Q 440.86654,0 438.75713,0 427.6074,0 420.82716,-6.4788959 414.04692,-12.957792 414.04692,-24.10752 v -34.503887 z"
         id="path3411" />
    </g>
  </g>
</svg>
